<svg id="Group_6" data-name="Group 6" xmlns="http://www.w3.org/2000/svg" width="24" height="24" viewBox="0 0 24 24">
  <path id="Path_7" data-name="Path 7" d="M0,0H24V24H0Z" fill="rgba(0,0,0,0)"/>
  <path id="Path_8" data-name="Path 8" d="M4,7V6A2,2,0,0,1,6,4H8" fill="none" stroke="teal" stroke-linecap="round" stroke-linejoin="round" stroke-width="1.5"/>
  <path id="Path_9" data-name="Path 9" d="M4,17v1a2,2,0,0,0,2,2H8" fill="none" stroke="teal" stroke-linecap="round" stroke-linejoin="round" stroke-width="1.5"/>
  <path id="Path_10" data-name="Path 10" d="M16,4h2a2,2,0,0,1,2,2V7" fill="none" stroke="teal" stroke-linecap="round" stroke-linejoin="round" stroke-width="1.5"/>
  <path id="Path_11" data-name="Path 11" d="M16,20h2a2,2,0,0,0,2-2V17" fill="none" stroke="teal" stroke-linecap="round" stroke-linejoin="round" stroke-width="1.5"/>
  <path id="Path_12" data-name="Path 12" d="M5,11H6v2H5Z" fill="none" stroke="teal" stroke-linecap="round" stroke-linejoin="round" stroke-width="1.5"/>
  <path id="Path_13" data-name="Path 13" d="M10,11v2" fill="none" stroke="teal" stroke-linecap="round" stroke-linejoin="round" stroke-width="1.5"/>
  <path id="Path_14" data-name="Path 14" d="M14,11h1v2H14Z" fill="none" stroke="teal" stroke-linecap="round" stroke-linejoin="round" stroke-width="1.5"/>
  <path id="Path_15" data-name="Path 15" d="M19,11v2" fill="none" stroke="teal" stroke-linecap="round" stroke-linejoin="round" stroke-width="1.5"/>
</svg>
